<svg xmlns="http://www.w3.org/2000/svg" viewBox="0 0 120 180">
  <ellipse cx="60" cy="110" rx="32" ry="42" fill="#d4a800"/>
  <circle cx="60" cy="58" r="34" fill="#f0c200"/>
  <rect x="28" y="10" width="64" height="8" rx="4" fill="#1a1a1a"/>
  <rect x="38" y="-10" width="44" height="22" rx="6" fill="#1a1a1a" transform="rotate(8,60,0)"/>
  <ellipse cx="46" cy="52" rx="11" ry="13" fill="#000"/>
  <ellipse cx="74" cy="50" rx="9" ry="14" fill="#000"/>
  <circle cx="46" cy="50" r="5" fill="#ff0000"/>
  <circle cx="74" cy="48" r="5" fill="#ff6600"/>
  <path d="M38 72 Q50 85 60 72 Q70 85 82 72" stroke="#ff0000" stroke-width="3" fill="none"/>
  <polygon points="55,100 65,100 62,130 58,130" fill="#cc0000"/>
  <rect x="20" y="45" width="25" height="3" fill="#ff00ff" opacity="0.7"/>
  <rect x="75" y="62" width="20" height="2" fill="#00ffff" opacity="0.6"/>
  <rect x="30" y="88" width="15" height="2" fill="#ff0000" opacity="0.5"/>
</svg>
