<svg xmlns="http://www.w3.org/2000/svg" viewBox="0 0 120 180">
  <ellipse cx="60" cy="115" rx="30" ry="45" fill="#e8c000"/>
  <circle cx="60" cy="60" r="32" fill="#f0d000"/>
  <path d="M42 68 Q60 58 78 68 Q68 82 60 78 Q52 82 42 68Z" fill="#ff8800"/>
  <ellipse cx="46" cy="54" rx="12" ry="14" fill="#000"/>
  <ellipse cx="74" cy="52" rx="10" ry="15" fill="#000"/>
  <circle cx="46" cy="52" r="5" fill="#ff0000"/>
  <circle cx="74" cy="50" r="5" fill="#cc0000"/>
  <path d="M48 28 Q60 10 72 28" stroke="#ff8800" stroke-width="5" fill="none"/>
  <circle cx="60" cy="12" r="6" fill="#ff6600"/>
  <path d="M35 148 Q28 160 22 155 Q28 148 35 145Z" fill="#cc9900"/>
  <path d="M38 155 Q32 168 26 162 Q33 156 38 152Z" fill="#cc9900"/>
  <path d="M85 148 Q92 160 98 155 Q92 148 85 145Z" fill="#cc9900"/>
  <path d="M82 155 Q88 168 94 162 Q87 156 82 152Z" fill="#cc9900"/>
  <rect x="34" y="48" width="16" height="3" fill="#ffff00" opacity="0.7"/>
  <rect x="70" y="56" width="18" height="2" fill="#ff8800" opacity="0.6"/>
  <path d="M50 72 Q60 80 70 72 Q65 88 60 85 Q55 88 50 72Z" fill="#cc4400"/>
</svg>
