<svg xmlns="http://www.w3.org/2000/svg" viewBox="0 0 120 180">
  <rect x="25" y="90" width="70" height="75" rx="8" fill="#6600cc"/>
  <rect x="12" y="20" width="96" height="72" rx="12" fill="#440099"/>
  <rect x="16" y="24" width="88" height="64" rx="8" fill="#000011"/>
  <rect x="18" y="26" width="84" height="60" rx="6" fill="#110022"/>
  <line x1="18" y1="34" x2="102" y2="34" stroke="#6600ff" stroke-width="1" opacity="0.4"/>
  <line x1="18" y1="42" x2="102" y2="42" stroke="#6600ff" stroke-width="1" opacity="0.4"/>
  <line x1="18" y1="50" x2="102" y2="50" stroke="#6600ff" stroke-width="1" opacity="0.4"/>
  <line x1="18" y1="58" x2="102" y2="58" stroke="#6600ff" stroke-width="1" opacity="0.4"/>
  <line x1="18" y1="66" x2="102" y2="66" stroke="#6600ff" stroke-width="1" opacity="0.4"/>
  <line x1="18" y1="74" x2="102" y2="74" stroke="#6600ff" stroke-width="1" opacity="0.4"/>
  <ellipse cx="42" cy="52" rx="13" ry="15" fill="#9900ff"/>
  <ellipse cx="78" cy="50" rx="11" ry="16" fill="#9900ff"/>
  <path d="M35 68 Q60 80 85 68" stroke="#ff00ff" stroke-width="3" fill="none"/>
  <line x1="40" y1="20" x2="32" y2="2" stroke="#cc00ff" stroke-width="3"/>
  <line x1="80" y1="20" x2="88" y2="2" stroke="#cc00ff" stroke-width="3"/>
  <circle cx="31" cy="1" r="4" fill="#ff00ff"/>
  <circle cx="89" cy="1" r="4" fill="#ff00ff"/>
  <rect x="18" y="38" width="30" height="6" fill="#ff00ff" opacity="0.3"/>
  <rect x="65" y="55" width="25" height="4" fill="#00ffff" opacity="0.4"/>
  <rect x="38" y="162" width="16" height="18" rx="4" fill="#5500aa"/>
  <rect x="66" y="162" width="16" height="18" rx="4" fill="#5500aa"/>
</svg>
